<svg xmlns="http://www.w3.org/2000/svg" viewBox="0 0 100 100"><defs><style>.cls-1{opacity:0.7;}</style></defs><g id="Layer_2" data-name="Layer 2"><path d="M66.7,32.81V29.07a16.7,16.7,0,1,0-33.4,0v3.74H18.38V71.35A16.31,16.31,0,0,0,34.67,87.64H65.33A16.31,16.31,0,0,0,81.62,71.35V32.81ZM38.8,29.07a11.2,11.2,0,1,1,22.4,0v3.74H38.8ZM76.12,71.35A10.8,10.8,0,0,1,65.33,82.14H34.67A10.8,10.8,0,0,1,23.88,71.35v-33H33.3V48.1a2.75,2.75,0,0,0,5.5,0V38.31H61.2V48.1a2.75,2.75,0,0,0,5.5,0V38.31h9.42Z"/></g></svg>