<svg xmlns="http://www.w3.org/2000/svg" viewBox="0 0 100 100"><defs><style>.cls-1{opacity:0.7;}.cls-2{fill:none;}</style></defs><g id="Layer_2" data-name="Layer 2"><path class="cls-2" d="M66.08,23.13H33.92A10.8,10.8,0,0,0,23.13,33.92V66.08A10.8,10.8,0,0,0,33.92,76.87H66.08A10.8,10.8,0,0,0,76.87,66.08V33.92A10.8,10.8,0,0,0,66.08,23.13ZM50,66.31A16.31,16.31,0,1,1,66.31,50,16.31,16.31,0,0,1,50,66.31ZM69.2,36.26A4.24,4.24,0,1,1,73.43,32,4.23,4.23,0,0,1,69.2,36.26Z"/><path class="cls-2" d="M50,39.19A10.81,10.81,0,1,0,60.81,50,10.82,10.82,0,0,0,50,39.19Z"/><path d="M66.08,17.63H33.92A16.31,16.31,0,0,0,17.63,33.92V66.08A16.31,16.31,0,0,0,33.92,82.37H66.08A16.31,16.31,0,0,0,82.37,66.08V33.92A16.31,16.31,0,0,0,66.08,17.63ZM76.87,66.08A10.8,10.8,0,0,1,66.08,76.87H33.92A10.8,10.8,0,0,1,23.13,66.08V33.92A10.8,10.8,0,0,1,33.92,23.13H66.08A10.8,10.8,0,0,1,76.87,33.92Z"/><path d="M50,33.69A16.31,16.31,0,1,0,66.31,50,16.31,16.31,0,0,0,50,33.69Zm0,27.12A10.81,10.81,0,1,1,60.81,50,10.82,10.82,0,0,1,50,60.81Z"/><path d="M69.2,27.79A4.24,4.24,0,1,0,73.43,32,4.23,4.23,0,0,0,69.2,27.79Z"/></g></svg>