<svg width="208" height="39" viewBox="0 0 208 39" fill="none" xmlns="http://www.w3.org/2000/svg">
<path d="M12.329 30.811C12.329 31.1663 11.4953 31.4533 9.82798 31.672C8.16065 31.8907 6.47965 32 4.78498 32C3.11765 32 2.03798 31.9043 1.54598 31.713C1.08132 31.5217 0.848984 31.221 0.848984 30.811V4.448C0.848984 3.73733 1.73732 3.23167 3.51398 2.931C5.31798 2.63033 7.58665 2.48 10.32 2.48C13.0533 2.48 14.8163 2.49367 15.609 2.521C16.429 2.521 17.3857 2.562 18.479 2.644C19.5723 2.726 20.4333 2.86266 21.062 3.054C21.718 3.24533 22.4287 3.49133 23.194 3.792C23.9867 4.09267 24.6017 4.489 25.039 4.981C25.4763 5.44567 25.9 6.006 26.31 6.662C27.048 7.83733 27.417 9.51833 27.417 11.705C27.417 13.8643 27.048 15.6957 26.31 17.199C25.5993 18.675 24.6427 19.7957 23.44 20.561C26.5833 25.5083 28.155 28.6517 28.155 29.991C28.155 31.3303 25.4627 32 20.078 32C18.52 32 17.4403 31.9317 16.839 31.795C16.2377 31.6583 15.855 31.3577 15.691 30.893L13.026 22.447L12.329 22.406V30.811ZM12.329 16.092H13.395C14.9803 16.092 15.773 14.862 15.773 12.402C15.773 11.1447 15.5543 10.2563 15.117 9.737C14.707 9.21767 14.2287 8.958 13.682 8.958H12.329V16.092ZM40.7756 22.734C40.7756 24.5107 41.623 25.399 43.3176 25.399C44.3016 25.399 45.5863 25.071 47.1716 24.415C48.757 23.7317 49.5906 23.39 49.6726 23.39C50.192 23.39 50.8753 24.169 51.7226 25.727C52.57 27.285 52.9936 28.433 52.9936 29.171C52.9936 30.237 51.9003 31.0433 49.7136 31.59C47.527 32.1367 45.3813 32.41 43.2766 32.41C41.1993 32.41 39.45 32.246 38.0286 31.918C36.6346 31.59 35.4866 31.18 34.5846 30.688C33.71 30.1687 32.931 29.54 32.2476 28.802C31.5916 28.064 31.0996 27.367 30.7716 26.711C30.4436 26.0277 30.184 25.276 29.9926 24.456C29.7193 23.2533 29.5826 22.0097 29.5826 20.725C29.5826 15.7503 30.881 12.32 33.4776 10.434C34.7623 9.47733 36.1973 8.80766 37.7826 8.425C39.368 8.04233 41.2403 7.851 43.3996 7.851C50.315 7.851 53.7726 10.2563 53.7726 15.067C53.7726 20.1783 49.8913 22.734 42.1286 22.734H40.7756ZM40.6936 16.748V19.454C41.4863 19.454 42.1286 19.1397 42.6206 18.511C43.14 17.8823 43.3996 17.117 43.3996 16.215C43.3996 14.575 42.976 13.755 42.1286 13.755C41.172 13.755 40.6936 14.7527 40.6936 16.748ZM64.0082 32.369C61.5209 32.369 59.5665 31.7813 58.1452 30.606C57.5712 30.114 57.0655 29.3897 56.6282 28.433C56.2182 27.4763 56.0132 26.3557 56.0132 25.071C56.0132 23.7863 56.3139 22.6657 56.9152 21.709C57.5439 20.7523 58.2955 20.0143 59.1702 19.495C60.0449 18.9757 61.0699 18.552 62.2452 18.224C64.0219 17.7593 65.9762 17.527 68.1082 17.527H69.4612C69.4612 16.4063 69.0785 15.6137 68.3132 15.149C67.9852 14.9577 67.4795 14.862 66.7962 14.862C66.1402 14.862 65.3339 15.0397 64.3772 15.395C63.4479 15.7503 62.6689 16.1193 62.0402 16.502C61.4115 16.8573 60.9879 17.035 60.7692 17.035C60.2772 17.035 59.6075 16.3927 58.7602 15.108C57.9129 13.796 57.4892 12.607 57.4892 11.541C57.4892 11.1857 57.9949 10.721 59.0062 10.147C60.0175 9.573 61.4389 9.05367 63.2702 8.589C65.1289 8.097 66.9329 7.851 68.6822 7.851C70.4315 7.851 71.9349 8.00133 73.1922 8.302C74.4769 8.57533 75.5155 8.917 76.3082 9.327C77.1282 9.737 77.8115 10.2837 78.3582 10.967C78.9322 11.6503 79.3559 12.2653 79.6292 12.812C79.9299 13.3587 80.1485 14.0693 80.2852 14.944C80.4765 15.9553 80.5722 17.199 80.5722 18.675V31.016C80.5722 31.3167 79.8342 31.5627 78.3582 31.754C76.9095 31.918 75.4609 32 74.0122 32C72.5909 32 71.6615 31.959 71.2242 31.877C70.8142 31.795 70.5682 31.6993 70.4862 31.59C70.4042 31.4807 70.3359 31.2893 70.2812 31.016L69.9532 28.679H69.6252C68.9419 31.139 67.0695 32.369 64.0082 32.369ZM69.5022 25.563V20.766C68.7915 20.766 68.2175 21.0667 67.7802 21.668C67.3429 22.2693 67.1242 22.9527 67.1242 23.718C67.1242 25.522 67.5342 26.424 68.3542 26.424C68.7095 26.424 68.9829 26.342 69.1742 26.178C69.3929 25.9867 69.5022 25.7817 69.5022 25.563ZM91.1528 32.369C90.1414 32.369 89.1984 32.2187 88.3238 31.918C87.4491 31.6173 86.7248 31.2483 86.1508 30.811C85.6041 30.3737 85.1258 29.786 84.7158 29.048C84.3058 28.31 83.9914 27.613 83.7728 26.957C83.5541 26.2737 83.3901 25.44 83.2808 24.456C83.1168 23.0073 83.0348 21.3537 83.0348 19.495C83.0348 15.6957 83.7318 12.812 85.1258 10.844C86.5198 8.84866 88.4331 7.851 90.8658 7.851C93.3531 7.851 95.1571 8.43867 96.2778 9.614C96.5238 9.88733 96.7151 10.2153 96.8518 10.598H97.1798L96.6878 7.769V2.644C96.6878 2.04267 97.4531 1.455 98.9838 0.880997C100.514 0.306998 102.168 0.0199987 103.945 0.0199987C105.803 0.0199987 106.992 0.375332 107.512 1.086C107.703 1.35933 107.799 1.63267 107.799 1.906V31.016C107.799 31.3167 107.033 31.5627 105.503 31.754C103.999 31.918 102.537 32 101.116 32C99.7218 32 98.8198 31.959 98.4098 31.877C98.0271 31.7677 97.7811 31.6583 97.6718 31.549C97.5898 31.4397 97.5351 31.262 97.5078 31.016L97.1798 28.679H96.8518C96.6058 29.6357 96.1138 30.442 95.3758 31.098C94.4464 31.9453 93.0388 32.369 91.1528 32.369ZM95.7448 26.383C96.1821 26.383 96.5101 26.1097 96.7288 25.563V14.616C96.7288 14.3427 96.5784 14.1377 96.2778 14.001C96.0044 13.837 95.7584 13.755 95.5398 13.755C94.6104 13.755 94.1458 15.887 94.1458 20.151C94.1458 22.4197 94.2688 24.0323 94.5148 24.989C94.7881 25.9183 95.1981 26.383 95.7448 26.383ZM124.734 32.369C122.466 32.369 120.511 32.164 118.871 31.754C117.259 31.3167 115.769 30.5513 114.402 29.458C111.642 27.2987 110.261 23.1577 110.261 17.035C110.261 14.4657 110.63 12.2243 111.368 10.311C112.134 8.39767 113.186 6.88067 114.525 5.76C117.149 3.57333 120.552 2.48 124.734 2.48C126.894 2.48 128.766 2.67133 130.351 3.054C131.964 3.43667 133.481 4.13367 134.902 5.145C137.772 7.22233 139.207 11.1857 139.207 17.035C139.207 22.283 137.909 26.1507 135.312 28.638C132.716 31.1253 129.19 32.369 124.734 32.369ZM123.381 25.358C123.709 25.7407 124.16 25.932 124.734 25.932C125.308 25.932 125.759 25.7407 126.087 25.358C126.415 24.948 126.689 24.1007 126.907 22.816C127.126 21.504 127.235 19.6863 127.235 17.363C127.235 15.0397 127.126 13.2493 126.907 11.992C126.689 10.7347 126.415 9.91467 126.087 9.532C125.759 9.14933 125.308 8.958 124.734 8.958C124.16 8.958 123.709 9.14933 123.381 9.532C123.053 9.91467 122.78 10.7347 122.561 11.992C122.343 13.2493 122.233 15.0397 122.233 17.363C122.233 19.6863 122.343 21.504 122.561 22.816C122.78 24.1007 123.053 24.948 123.381 25.358ZM166.385 18.388V31.016C166.385 31.3167 165.606 31.5627 164.048 31.754C162.49 31.918 160.877 32 159.21 32C157.57 32 156.504 31.9317 156.012 31.795C155.547 31.631 155.315 31.3713 155.315 31.016V17.978C155.315 16.748 155.26 15.9417 155.151 15.559C155.069 15.1763 154.987 14.8347 154.905 14.534C154.713 14.0147 154.372 13.755 153.88 13.755C153.114 13.755 152.732 14.124 152.732 14.862V31.016C152.732 31.3167 151.953 31.5627 150.395 31.754C148.864 31.918 147.265 32 145.598 32C143.958 32 142.892 31.9317 142.4 31.795C141.908 31.631 141.662 31.3713 141.662 31.016V10.803C141.662 10.229 142.441 9.655 143.999 9.081C145.584 8.507 147.251 8.22 149.001 8.22C150.75 8.22 151.734 8.72566 151.953 9.737L152.322 11.541H152.609C153.401 9.95567 154.768 8.84866 156.709 8.22C157.501 7.974 158.376 7.851 159.333 7.851C162.093 7.851 163.952 8.68467 164.909 10.352C165.893 11.992 166.385 14.6707 166.385 18.388ZM180.318 1.906V31.016C180.318 31.3167 179.539 31.5627 177.981 31.754C176.423 31.918 174.811 32 173.143 32C171.503 32 170.437 31.9317 169.945 31.795C169.481 31.631 169.248 31.3713 169.248 31.016V2.644C169.248 2.04267 170.014 1.455 171.544 0.880997C173.102 0.306998 174.77 0.0199987 176.546 0.0199987C179.061 0.0199987 180.318 0.648665 180.318 1.906ZM196.999 29.335V26.916H196.671C196.534 27.0527 196.329 27.2303 196.056 27.449C195.783 27.6677 195.14 27.9547 194.129 28.31C193.118 28.6653 191.983 28.843 190.726 28.843C189.496 28.843 188.403 28.6517 187.446 28.269C186.517 27.859 185.779 27.326 185.232 26.67C184.685 25.9867 184.262 25.0847 183.961 23.964C183.442 22.1873 183.182 19.6727 183.182 16.42V10.762C183.182 10.188 183.988 9.62767 185.601 9.081C187.214 8.507 188.908 8.22 190.685 8.22C193.063 8.22 194.252 8.835 194.252 10.065V15.231C194.252 20.6977 194.689 23.431 195.564 23.431C196.083 23.431 196.343 23.062 196.343 22.324V10.762C196.343 10.188 197.204 9.62767 198.926 9.081C200.648 8.507 202.493 8.22 204.461 8.22C206.429 8.22 207.413 8.753 207.413 9.819V29.212C207.413 35.3073 203.286 38.355 195.031 38.355C190.685 38.355 187.733 37.9313 186.175 37.084C185.492 36.7013 185.15 36.305 185.15 35.895C185.15 35.239 185.423 34.132 185.97 32.574C186.517 31.0433 187.022 30.278 187.487 30.278C187.596 30.278 187.979 30.36 188.635 30.524C190.658 31.0707 192.339 31.344 193.678 31.344C195.045 31.344 195.933 31.1937 196.343 30.893C196.78 30.5923 196.999 30.073 196.999 29.335Z" fill="#4E4646"/>
</svg>
